# xmcd CD database file
#
# Track frame offsets:
#	150
#	42230
#	55481
#	91288
#	99130
#	119658
#	131380
#	165807
#	197330
#
# Disc length: 3428 seconds
#
# Revision: 0
# Processed by: cddbd v1.5.2PL0 Copyright (c) Steve Scherf et al.
# Submitted via: CDex 1.70beta2
#
DISCID=680d6209
DTITLE=Vinny Golia - Hell-Bent In The Pacific
DYEAR=2012
DGENRE=Jazz
TTITLE0=Meteorites
TTITLE1=Inessential Melancholies
TTITLE2=Everything Imaginable Can Be Dreamed
TTITLE3=Deformities And Discords
TTITLE4=Pendulum
TTITLE5=Fumbling Fulminations
TTITLE6=Prisoner Of A Gaudy And Unlivable Present
TTITLE7=Lop-Sided Heels And Frayed Shoes
TTITLE8=Catholic Comstocking Smut-Hound
EXTD=YEAR: 2012
EXTT0=
EXTT1=
EXTT2=
EXTT3=
EXTT4=
EXTT5=
EXTT6=
EXTT7=
EXTT8=
PLAYORDER=
